<svg width="112" height="92" viewBox="0 0 112 92" fill="none" xmlns="http://www.w3.org/2000/svg">
<path d="M109.167 79.8333C109.167 82.3971 108.148 84.8558 106.335 86.6687C104.523 88.4816 102.064 89.5 99.5 89.5H12.5C9.93625 89.5 7.4775 88.4816 5.66464 86.6687C3.85179 84.8558 2.83334 82.3971 2.83334 79.8333V26.6667C2.83334 24.1029 3.85179 21.6442 5.66464 19.8313C7.4775 18.0184 9.93625 17 12.5 17H31.8333L41.5 2.5H70.5L80.1667 17H99.5C102.064 17 104.523 18.0184 106.335 19.8313C108.148 21.6442 109.167 24.1029 109.167 26.6667V79.8333Z" stroke="#025D8F" stroke-width="4" stroke-linecap="round" stroke-linejoin="round"/>
<path d="M56 70.1667C66.6775 70.1667 75.3333 61.5108 75.3333 50.8333C75.3333 40.1558 66.6775 31.5 56 31.5C45.3225 31.5 36.6667 40.1558 36.6667 50.8333C36.6667 61.5108 45.3225 70.1667 56 70.1667Z" stroke="#025D8F" stroke-width="4" stroke-linecap="round" stroke-linejoin="round"/>
</svg>
