<svg width="212" height="59" viewBox="0 0 212 59" fill="none" xmlns="http://www.w3.org/2000/svg">
<path d="M1.49091 15.6052H12.452V46.8732H1.49091V15.6052ZM6.97148 12.1438C4.97156 12.1438 3.35623 11.5861 2.12551 10.4707C0.894784 9.3554 0.279419 7.97084 0.279419 6.31706C0.279419 4.66327 0.894784 3.27871 2.12551 2.16337C3.35623 1.04803 4.97156 0.490356 6.97148 0.490356C8.9714 0.490356 10.5867 1.0288 11.8174 2.10568C13.0482 3.1441 13.6635 4.4902 13.6635 6.14399C13.6635 7.87469 13.0482 9.31694 11.8174 10.4707C10.5867 11.5861 8.9714 12.1438 6.97148 12.1438Z" fill="#0E2222"/>
<path d="M42.2524 15.086C45.0985 15.086 47.6753 15.759 49.9829 17.1051C52.329 18.4127 54.175 20.2973 55.5211 22.7587C56.9057 25.1817 57.598 28.0085 57.598 31.2392C57.598 34.4698 56.9057 37.3159 55.5211 39.7773C54.175 42.2003 52.329 44.0848 49.9829 45.4309C47.6753 46.7386 45.0985 47.3924 42.2524 47.3924C38.5987 47.3924 35.695 46.2963 33.5412 44.1041V58.0651H22.5801V15.6052H33.022V18.7204C35.0604 16.2974 38.1372 15.086 42.2524 15.086ZM39.9448 38.6812C41.8678 38.6812 43.4447 38.0274 44.6754 36.7197C45.9061 35.3736 46.5215 33.5468 46.5215 31.2392C46.5215 28.9316 45.9061 27.124 44.6754 25.8163C43.4447 24.4702 41.8678 23.7972 39.9448 23.7972C38.0218 23.7972 36.445 24.4702 35.2142 25.8163C33.9835 27.124 33.3682 28.9316 33.3682 31.2392C33.3682 33.5468 33.9835 35.3736 35.2142 36.7197C36.445 38.0274 38.0218 38.6812 39.9448 38.6812Z" fill="#0E2222"/>
<path d="M86.0621 15.086C89.9465 15.086 93.0618 16.2398 95.4078 18.5474C97.7924 20.855 98.9846 24.3356 98.9846 28.9893V46.8732H88.0235V30.7777C88.0235 26.5086 86.312 24.3741 82.8891 24.3741C81.0045 24.3741 79.4854 24.9894 78.3316 26.2201C77.2162 27.4509 76.6586 29.2969 76.6586 31.7584V46.8732H65.6974V4.06714H76.6586V18.4897C77.8508 17.3743 79.2546 16.5282 80.8699 15.9513C82.4853 15.3744 84.216 15.086 86.0621 15.086Z" fill="#0E2222"/>
<path d="M125.014 47.3924C121.667 47.3924 118.648 46.7001 115.956 45.3156C113.264 43.931 111.149 42.008 109.61 39.5466C108.11 37.0851 107.36 34.2968 107.36 31.1815C107.36 28.1047 108.11 25.3356 109.61 22.8741C111.149 20.4127 113.245 18.5089 115.898 17.1628C118.591 15.7782 121.629 15.086 125.014 15.086C128.398 15.086 131.436 15.7782 134.129 17.1628C136.821 18.5089 138.917 20.4127 140.417 22.8741C141.917 25.2971 142.667 28.0662 142.667 31.1815C142.667 34.2968 141.917 37.0851 140.417 39.5466C138.917 42.008 136.821 43.931 134.129 45.3156C131.436 46.7001 128.398 47.3924 125.014 47.3924ZM125.014 38.6812C126.937 38.6812 128.513 38.0274 129.744 36.7197C130.975 35.3736 131.59 33.5276 131.59 31.1815C131.59 28.8739 130.975 27.0663 129.744 25.7586C128.513 24.451 126.937 23.7972 125.014 23.7972C123.091 23.7972 121.514 24.451 120.283 25.7586C119.052 27.0663 118.437 28.8739 118.437 31.1815C118.437 33.5276 119.052 35.3736 120.283 36.7197C121.514 38.0274 123.091 38.6812 125.014 38.6812Z" fill="#0E2222"/>
<path d="M172.325 45.604C171.402 46.1809 170.268 46.6232 168.921 46.9309C167.614 47.2386 166.21 47.3924 164.71 47.3924C160.633 47.3924 157.499 46.3924 155.307 44.3925C153.114 42.3926 152.018 39.4119 152.018 35.4506V24.951H147.461V16.759H152.018V8.62466H162.979V16.759H170.133V24.951H162.979V35.3352C162.979 36.4505 163.268 37.3351 163.845 37.9889C164.46 38.6043 165.268 38.912 166.268 38.912C167.537 38.912 168.652 38.5851 169.614 37.9312L172.325 45.604Z" fill="#0E2222"/>
<path d="M194.347 47.3924C191.001 47.3924 187.982 46.7001 185.289 45.3156C182.597 43.931 180.482 42.008 178.944 39.5466C177.444 37.0851 176.694 34.2968 176.694 31.1815C176.694 28.1047 177.444 25.3356 178.944 22.8741C180.482 20.4127 182.578 18.5089 185.232 17.1628C187.924 15.7782 190.962 15.086 194.347 15.086C197.731 15.086 200.77 15.7782 203.462 17.1628C206.154 18.5089 208.25 20.4127 209.75 22.8741C211.25 25.2971 212 28.0662 212 31.1815C212 34.2968 211.25 37.0851 209.75 39.5466C208.25 42.008 206.154 43.931 203.462 45.3156C200.77 46.7001 197.731 47.3924 194.347 47.3924ZM194.347 38.6812C196.27 38.6812 197.847 38.0274 199.077 36.7197C200.308 35.3736 200.923 33.5276 200.923 31.1815C200.923 28.8739 200.308 27.0663 199.077 25.7586C197.847 24.451 196.27 23.7972 194.347 23.7972C192.424 23.7972 190.847 24.451 189.616 25.7586C188.386 27.0663 187.77 28.8739 187.77 31.1815C187.77 33.5276 188.386 35.3736 189.616 36.7197C190.847 38.0274 192.424 38.6812 194.347 38.6812Z" fill="#0E2222"/>
<ellipse cx="6.91079" cy="6.30985" rx="6.91079" ry="6.30985" fill="#025D8F"/>
</svg>
