<svg width="118" height="32" viewBox="0 0 118 32" fill="none" xmlns="http://www.w3.org/2000/svg">
<path d="M0.829841 8.60012H6.93084V25.8321H0.829841V8.60012ZM3.88034 6.69252C2.76718 6.69252 1.86808 6.38518 1.18306 5.77051C0.498032 5.15584 0.155518 4.3928 0.155518 3.48139C0.155518 2.56998 0.498032 1.80694 1.18306 1.19227C1.86808 0.577599 2.76718 0.270264 3.88034 0.270264C4.99351 0.270264 5.8926 0.567002 6.57763 1.16048C7.26265 1.73276 7.60516 2.4746 7.60516 3.38601C7.60516 4.33981 7.26265 5.13464 6.57763 5.77051C5.8926 6.38518 4.99351 6.69252 3.88034 6.69252Z" fill="#FFF7ED"/>
<path d="M23.5179 8.31398C25.102 8.31398 26.5362 8.6849 27.8207 9.42675C29.1265 10.1474 30.154 11.186 30.9033 12.5425C31.6739 13.8778 32.0593 15.4357 32.0593 17.2161C32.0593 18.9965 31.6739 20.565 30.9033 21.9215C30.154 23.2569 29.1265 24.2954 27.8207 25.0373C26.5362 25.7579 25.102 26.1183 23.5179 26.1183C21.4842 26.1183 19.868 25.5142 18.6692 24.306V32H12.5682V8.60012H18.3802V10.317C19.5147 8.98164 21.2273 8.31398 23.5179 8.31398ZM22.2334 21.3175C23.3038 21.3175 24.1815 20.9571 24.8665 20.2365C25.5515 19.4946 25.894 18.4879 25.894 17.2161C25.894 15.9444 25.5515 14.9482 24.8665 14.2275C24.1815 13.4857 23.3038 13.1148 22.2334 13.1148C21.1631 13.1148 20.2854 13.4857 19.6004 14.2275C18.9153 14.9482 18.5728 15.9444 18.5728 17.2161C18.5728 18.4879 18.9153 19.4946 19.6004 20.2365C20.2854 20.9571 21.1631 21.3175 22.2334 21.3175Z" fill="#FFF7ED"/>
<path d="M47.9025 8.31398C50.0646 8.31398 51.7985 8.94985 53.1044 10.2216C54.4316 11.4933 55.0952 13.4115 55.0952 15.9762V25.8321H48.9942V16.9618C48.9942 14.6091 48.0416 13.4327 46.1364 13.4327C45.0874 13.4327 44.2419 13.7718 43.5996 14.4501C42.9788 15.1284 42.6684 16.1457 42.6684 17.5023V25.8321H36.5674V2.24145H42.6684V10.1898C43.3321 9.57512 44.1134 9.10881 45.0125 8.79088C45.9116 8.47295 46.8749 8.31398 47.9025 8.31398Z" fill="#FFF7ED"/>
<path d="M69.583 26.1183C67.7206 26.1183 66.0401 25.7367 64.5416 24.9737C63.0432 24.2106 61.8658 23.1509 61.0095 21.7944C60.1746 20.4378 59.7572 18.9012 59.7572 17.1843C59.7572 15.4887 60.1746 13.9626 61.0095 12.6061C61.8658 11.2496 63.0324 10.2004 64.5095 9.45854C66.008 8.6955 67.6992 8.31398 69.583 8.31398C71.4668 8.31398 73.158 8.6955 74.6565 9.45854C76.155 10.2004 77.3216 11.2496 78.1565 12.6061C78.9914 13.9414 79.4088 15.4675 79.4088 17.1843C79.4088 18.9012 78.9914 20.4378 78.1565 21.7944C77.3216 23.1509 76.155 24.2106 74.6565 24.9737C73.158 25.7367 71.4668 26.1183 69.583 26.1183ZM69.583 21.3175C70.6534 21.3175 71.531 20.9571 72.2161 20.2365C72.9011 19.4946 73.2436 18.4773 73.2436 17.1843C73.2436 15.9126 72.9011 14.9164 72.2161 14.1957C71.531 13.4751 70.6534 13.1148 69.583 13.1148C68.5126 13.1148 67.635 13.4751 66.9499 14.1957C66.2649 14.9164 65.9224 15.9126 65.9224 17.1843C65.9224 18.4773 66.2649 19.4946 66.9499 20.2365C67.635 20.9571 68.5126 21.3175 69.583 21.3175Z" fill="#FFF7ED"/>
<path d="M95.9168 25.1327C95.403 25.4506 94.7715 25.6943 94.0223 25.8639C93.2945 26.0335 92.5131 26.1183 91.6782 26.1183C89.4091 26.1183 87.6644 25.5672 86.4442 24.465C85.224 23.3628 84.6139 21.7202 84.6139 19.537V13.7506H82.0772V9.23599H84.6139V4.75312H90.7149V9.23599H94.6966V13.7506H90.7149V19.4734C90.7149 20.0881 90.8755 20.5756 91.1966 20.9359C91.5391 21.2751 91.9886 21.4446 92.5452 21.4446C93.2516 21.4446 93.8724 21.2645 94.4076 20.9041L95.9168 25.1327Z" fill="#FFF7ED"/>
<path d="M108.174 26.1183C106.312 26.1183 104.631 25.7367 103.133 24.9737C101.634 24.2106 100.457 23.1509 99.6007 21.7944C98.7658 20.4378 98.3483 18.9012 98.3483 17.1843C98.3483 15.4887 98.7658 13.9626 99.6007 12.6061C100.457 11.2496 101.624 10.2004 103.101 9.45854C104.599 8.6955 106.29 8.31398 108.174 8.31398C110.058 8.31398 111.749 8.6955 113.248 9.45854C114.746 10.2004 115.913 11.2496 116.748 12.6061C117.583 13.9414 118 15.4675 118 17.1843C118 18.9012 117.583 20.4378 116.748 21.7944C115.913 23.1509 114.746 24.2106 113.248 24.9737C111.749 25.7367 110.058 26.1183 108.174 26.1183ZM108.174 21.3175C109.245 21.3175 110.122 20.9571 110.807 20.2365C111.492 19.4946 111.835 18.4773 111.835 17.1843C111.835 15.9126 111.492 14.9164 110.807 14.1957C110.122 13.4751 109.245 13.1148 108.174 13.1148C107.104 13.1148 106.226 13.4751 105.541 14.1957C104.856 14.9164 104.514 15.9126 104.514 17.1843C104.514 18.4773 104.856 19.4946 105.541 20.2365C106.226 20.9571 107.104 21.3175 108.174 21.3175Z" fill="#FFF7ED"/>
<ellipse cx="3.84657" cy="3.4774" rx="3.84657" ry="3.4774" fill="#025D8F"/>
</svg>
